<?xml version="1.0" standalone="no"?><!DOCTYPE svg PUBLIC "-//W3C//DTD SVG 1.1//EN" "http://www.w3.org/Graphics/SVG/1.1/DTD/svg11.dtd"><svg t="1596297189681" class="icon" viewBox="0 0 1024 1024" version="1.1" xmlns="http://www.w3.org/2000/svg" p-id="1179" xmlns:xlink="http://www.w3.org/1999/xlink" width="200" height="200"><defs><style type="text/css"></style></defs><path d="M516 486m-358 0a358 358 0 1 0 716 0 358 358 0 1 0-716 0Z" fill="#7A95EC" p-id="1180"></path><path d="M758.715 211.124c70.93 65.564 115.417 159.41 115.417 263.464 0 145.147-86.564 270.429-210.714 326.794-0.11-1.863-0.054-3.193 0.164-3.815 7.72-21.98 27.172-78.197 34.28-102.124-5.914-5.304-17.883-13.11-26.338-18.637-14.662-9.565-31.267-20.403-43.776-32.936-24.471-24.497-44.54-74.742-33.538-119.6 6.255-25.513 24.23-76.12 78.092-76.12 106.697 0 86.942-40.548 80.57-39.49-62.577 10.371-116.586 19.311-128.18-20.132-13.856-47.214 93.191-157.549 119.349-171.827 3.824-2.092 9.012-4.084 14.674-5.577zM158.282 458.754a359.017 359.017 0 0 1 4.507-43.202c0.2-0.137 0.404-0.272 0.61-0.405 0.408-0.263 0.313-0.931-0.209-1.963C182.24 303.096 251.592 210.053 346.595 158.742c63.905 3.146 143.19 24.397 171.896 49.945 20.528 18.268 28.192 47.277 19.535 73.908-10.482 32.249-41.104 53.882-81.903 57.871-31.26 3.052-41.367 32.971-44.63 51.372 0.653 9.516 11.962 40.138 18.771 58.594 6.241 16.913 12.142 32.888 16.078 46.408 5.894 20.23-4.144 40.771-25.581 52.33-11.035 5.96-24.405 9.254-38.706 9.254-27.547 0-58.557-12.213-83.125-41.145-14.162-16.691-19.34-35.842-23.5-51.233-5.866-21.716-7.15-21.897-12.558-22.669-25.241-3.642-58.209 12.986-68.747 19.694-11.647 7.416-26.661 5.3-35.843-4.317z" fill="#FBFC85" p-id="1181"></path><path d="M396.416 160.446c54.896 8.137 107.239 26.4 131.608 48.088 23.979 21.34 32.916 55.155 22.846 86.135-11.998 36.912-46.646 61.392-91.767 65.804-18.92 1.847-29.631 17.162-34.08 40.27 0.764 4.738 4.18 15.855 9.46 30.834a996.597 996.597 0 0 0 1.656 4.662c1.97 5.5 3.545 9.803 6.82 18.678 9.364 25.377 12.94 35.525 16.332 47.177 7.505 25.763-5.188 51.731-31.188 65.752-12.884 6.956-28.168 10.64-44.19 10.64-33.392 0-66.78-15.61-91.924-45.22-13.065-15.398-18.687-29.197-25.85-55.706-2.025-7.498-3.423-12.028-4.338-14.4-17.035-1.816-42.945 7.552-59.619 18.166-12.035 7.664-23.159 9.812-32.692 5.701 0.472 190.937 155.762 346.146 346.549 346.146 48.6 0 94.895-10.07 136.915-28.239-1.486-3.629-1.272-4.309-0.33-7.303 11.729-33.396 24.993-72.353 31.827-94.15a230.608 230.608 0 0 0-6.067-4.295 392.034 392.034 0 0 0-3.099-2.105c-2.876-1.935-5.063-3.374-10.126-6.684-23.629-15.415-34.53-23.317-45.638-34.447-30.31-30.342-47.672-85.354-36.59-130.54 4.762-19.418 11.955-37.013 23.212-51.862 15.903-20.978 37.896-33.066 66.099-33.066 42.431 0 65.68-6.45 72.989-14.956-39.98 6.5-57.464 8.353-76.335 7.193-29.12-1.788-48.335-13.177-55.346-37.03-7.715-26.286 11.04-64.27 46.746-108.771 23.8-29.663 53.642-59.407 71.453-72.17-59.234-47.307-134.235-75.613-215.71-75.613-42.022 0-82.32 7.529-119.623 21.311z m-38.072 16.746c-106.974 54.973-181.858 164.04-188.39 290.886 5.048 1.055 13.373-2.162 19.832-6.274 21.348-13.59 52.787-24.817 76.575-21.384l0.456 0.065c5.85 0.851 9.856 2.768 13.354 8.01 2.763 4.141 4.724 9.897 8.27 23.024 6.32 23.392 10.938 34.726 21.15 46.762 20.775 24.464 47.738 37.07 74.323 37.07 12.277 0 23.79-2.775 33.23-7.87 16.863-9.095 24.25-24.208 19.967-38.91-3.181-10.928-6.667-20.823-15.823-45.636-3.3-8.944-4.893-13.295-6.896-18.888-0.585-1.633-1.15-3.221-1.695-4.77-6.694-18.99-10.399-31.296-10.87-38.152l-0.096-1.417 0.247-1.398c5.858-33.035 22.465-57.698 54.882-60.862 36.482-3.568 63.076-22.357 72.041-49.94 7.245-22.287 0.849-46.487-16.225-61.682-24.434-21.746-93.324-43.937-154.332-48.634z m318.414 616.35C787.133 735.436 862.58 619.447 862.58 486.155c0-100.99-43.31-192.048-112.308-255.523-0.97 0.715-2.05 1.533-3.267 2.453-0.045 0.034-3.65 1.838-3.693 1.792-15.342 11.482-43.065 39.184-65.007 66.53-30.902 38.516-47.298 71.72-42.592 87.754 7.075 24.072 32.768 25.65 115.209 11.986 17.432-2.892 24.905 22.357 13.198 37.765-12.245 16.115-41.866 24.705-91.88 24.705-36.777 0-56.867 26.5-66.873 67.31-9.08 37.023 5.698 83.846 30.49 108.665 9.573 9.591 19.667 16.91 41.92 31.427 5.158 3.371 7.4 4.847 10.39 6.859 1.142 0.767 2.233 1.508 3.282 2.229 6.133 4.211 10.779 7.677 14.059 10.618l5.453 4.89-2.087 7.026c-3.626 12.202-21.204 60.05-32.117 90.901z m-160.72 62.766c-203.836 0-369.652-166.04-369.652-370.154S312.2 116 516.039 116c203.835 0 369.645 166.04 369.645 370.155 0 204.114-165.81 370.153-369.645 370.153z" fill="#854232" p-id="1182"></path><path d="M110.03 777.087a37.389 37.389 0 0 1 16.013-18.382c17.967-10.373 40.946-4.209 51.325 13.769a37.636 37.636 0 0 1 3.89 9.54c93.792-8.405 238.698-59.959 387.77-146.026C799.596 502.87 953.678 337.102 916.75 273.14c-14.296-24.762-59.78-33.394-128.999-22.492-6.306 0.994-12.226-3.315-13.222-9.624-0.996-6.308 3.308-12.228 9.615-13.22 77.767-12.25 131.993-1.959 152.626 33.778 46.986 81.382-114.078 254.662-356.176 394.437-152.465 88.026-300.369 141.575-400.723 148.833a37.393 37.393 0 0 1-16.24 18.955c-17.967 10.373-40.946 4.208-51.325-13.769a37.613 37.613 0 0 1-4.022-10.074c-21.958-6-38.178-16.785-47.37-32.706-21.007-36.386-1.762-89.75 49.79-152.416 4.055-4.93 11.34-5.636 16.271-1.576 4.93 4.06 5.64 11.346 1.584 16.277-46 55.916-62.217 100.884-47.626 126.157 5.633 9.755 15.537 16.846 29.098 21.387z" fill="#854232" p-id="1183"></path></svg>