<?xml version="1.0" standalone="no"?><!DOCTYPE svg PUBLIC "-//W3C//DTD SVG 1.1//EN" "http://www.w3.org/Graphics/SVG/1.1/DTD/svg11.dtd"><svg t="1596297197277" class="icon" viewBox="0 0 1024 1024" version="1.1" xmlns="http://www.w3.org/2000/svg" p-id="1324" xmlns:xlink="http://www.w3.org/1999/xlink" width="200" height="200"><defs><style type="text/css"></style></defs><path d="M225.778 64h572.444C887.57 64 960 136.43 960 225.778v572.444C960 887.57 887.57 960 798.222 960H225.778C136.43 960 64 887.57 64 798.222V225.778C64 136.43 136.43 64 225.778 64z" fill="#E7A3AF" p-id="1325"></path><path d="M284.889 176h446.129c49.828 0 90.222 40.394 90.222 90.222v1.262c0 49.828-40.394 90.222-90.222 90.222h-446.13c-49.827 0-90.221-40.394-90.221-90.222v-1.262c0-49.828 40.394-90.222 90.222-90.222z" fill="#E6DCF3" p-id="1326"></path><path d="M419.665 310.706c-7.194 0-13.092-1.523-17.694-4.57-5.347-3.564-8.07-8.766-8.167-15.604-0.162-9.56 2.982-16.414 9.43-20.562-4.698-3.727-7.048-8.41-7.048-14.049 0-6.384 2.43-11.683 7.292-15.896 4.634-4.018 10.224-6.06 16.77-6.125 7.746-0.065 13.547 1.993 17.404 6.174 3.305 3.63 4.958 8.588 4.958 14.875 0 3.532-0.632 6.368-1.896 8.507-1.134 1.912-3.03 3.646-5.687 5.201 3.953 2.204 6.789 4.764 8.506 7.68 1.977 3.242 2.966 7.503 2.966 12.785 0 6.936-2.706 12.364-8.118 16.285-4.894 3.533-11.132 5.299-18.716 5.299z m0.438-64.847c-7.097 0-10.614 3.338-10.549 10.013 0.033 3.338 3.095 5.785 9.188 7.34 3.403-0.94 5.752-1.798 7.048-2.576 2.301-1.393 3.452-3.289 3.452-5.687 0-3.63-0.778-6.109-2.334-7.438-1.296-1.101-3.564-1.652-6.805-1.652z m-0.73 29.458c-4.666 2.042-7.745 3.84-9.235 5.396-2.172 2.171-3.193 5.266-3.063 9.284 0.097 3.144 1.62 5.51 4.57 7.098 2.3 1.231 4.974 1.847 8.02 1.847 5.088 0 8.588-1.07 10.5-3.208 1.491-1.686 2.237-4.375 2.237-8.07 0-3.338-1.313-6.044-3.938-8.118-1.977-1.555-5.007-2.965-9.09-4.23z m66.598 12.687h-19.396c-10.403 0-15.604-2.122-15.604-6.368 0-1.782 0.907-3.775 2.722-5.979 1.49-1.685 2.998-3.386 4.521-5.104 5.218-7.454 13.174-18.537 23.868-33.25 2.528-3.37 5.817-5.056 9.868-5.056 1.912 0 3.565 0.487 4.958 1.459 1.653 1.166 2.48 2.803 2.48 4.91l0.048 36.555c4.246 0.13 7.081 0.567 8.507 1.313 1.588 0.875 2.382 2.592 2.382 5.152 0.033 2.69-1.199 4.537-3.694 5.542-1.75 0.68-4.148 0.956-7.195 0.826 0.097 4.667 0.081 9.723-0.048 15.167-0.033 1.783-0.616 3.257-1.75 4.424-1.135 1.166-2.674 1.75-4.618 1.75-4.926 0-7.276-3.241-7.049-9.723v-11.618z m0-34.66c-3.144 4.96-7.988 12.234-14.535 21.827h14.535v-21.826z m63.778 28.39c-1.977 0.68-3.784 1.19-5.42 1.53-1.637 0.341-3.103 0.511-4.4 0.511-6.514 0-12.201-1.75-17.062-5.25-5.963-4.278-8.945-10.386-8.945-18.326 0-9.204 3.047-16.155 9.14-20.854 5.12-3.954 11.78-5.93 19.978-5.93 6.514 0 12.315 2.51 17.403 7.534 5.347 5.25 8.037 11.602 8.07 19.055 0.032 8.102-1.54 15.961-4.716 23.577-3.435 8.264-8.134 14.502-14.097 18.715-2.495 1.75-6.4 3.84-11.715 6.27-6.093 2.756-10.403 4.133-12.93 4.133-1.913 0-3.5-0.68-4.765-2.042-1.166-1.264-1.75-2.738-1.75-4.423 0-2.593 1.556-4.57 4.667-5.931a758.747 758.747 0 0 0 7.972-2.576c4.732-1.815 8.45-3.881 11.157-6.198 2.706-2.317 5.177-5.582 7.413-9.795z m-8.118-36.702c-4.797 0-8.394 1.191-10.792 3.573-2.398 2.382-3.613 5.971-3.646 10.767 0 3.89 1.41 6.92 4.23 9.09 2.56 1.945 5.865 2.917 9.916 2.917 1.62 0 3.54-0.502 5.76-1.507 2.22-1.004 4.74-2.511 7.56-4.52 0.324-2.269 0.486-4.051 0.486-5.348-0.033-3.402-1.572-6.773-4.618-10.11-3.014-3.241-5.98-4.862-8.896-4.862z m57.798 66.111c-9.916 0-17.224-3.532-21.923-10.597-0.81-1.231-1.216-2.414-1.216-3.549 0-1.75 0.697-3.24 2.09-4.472 1.394-1.231 2.982-1.847 4.765-1.847 1.814 0 3.37 0.68 4.666 2.042 2.269 2.365 3.5 3.63 3.695 3.791 1.912 1.361 4.553 2.042 7.923 2.042 4.991 0 9.155-1.831 12.493-5.493 3.209-3.532 4.813-7.81 4.813-12.833 0-4.83-0.802-8.442-2.406-10.84-1.605-2.399-4.027-3.598-7.268-3.598-5.703 0-10.29 1.847-13.757 5.542a279.723 279.723 0 0 1-4.132 4.618c-1.75 1.653-3.613 2.479-5.59 2.479-1.847 0-3.41-0.632-4.69-1.896-1.281-1.264-1.921-2.754-1.921-4.472 0-0.745 0.275-3.565 0.826-8.458 1.07-9.496 1.605-15.815 1.605-18.959 0-0.777-0.284-1.847-0.851-3.208-0.567-1.361-0.85-2.43-0.85-3.208 0-1.62 0.826-2.852 2.478-3.695 1.297-0.648 2.82-0.972 4.57-0.972 0.648 0 1.628 0.057 2.94 0.17 1.313 0.114 2.294 0.17 2.942 0.17l23.382 0.049c0.583 0 1.83-0.097 3.743-0.292 1.912-0.194 3.176-0.291 3.791-0.291 1.75 0 3.192 0.559 4.327 1.677 1.134 1.118 1.701 2.552 1.701 4.302 0 4.828-4.91 7.243-14.729 7.243-0.778 0-1.758-0.016-2.941-0.049a108.231 108.231 0 0 0-2.358-0.048h-14.486c-0.097 1.976-0.502 5.25-1.215 9.819 4.245-2.074 9.317-3.111 15.215-3.111 7.875 0 13.854 2.933 17.938 8.798 3.403 4.83 5.104 10.906 5.104 18.23 0 8.815-2.722 16.106-8.167 21.875-5.671 6.027-13.173 9.041-22.507 9.041z m63.146-1.166c-10.727 0-18.504-4.635-23.333-13.903-3.565-6.87-5.347-15.734-5.347-26.59 0-9.269 2.35-17.403 7.048-24.403 5.64-8.394 13.352-12.59 23.14-12.59 9.268 0 16.462 3.743 21.582 11.229 4.31 6.32 6.466 13.951 6.466 22.896 0 14.453-2.463 25.293-7.39 32.52-4.925 7.227-12.314 10.84-22.166 10.84z m1.458-64.848c-5.25 0-9.462 2.61-12.638 7.827-2.787 4.537-4.181 9.803-4.181 15.798 0 7.908 0.745 14 2.236 18.278 2.398 6.903 6.773 10.354 13.125 10.354 5.315 0 9.301-2.422 11.958-7.267 2.658-4.845 3.987-12.112 3.987-21.802 0-7.745-1.208-13.546-3.622-17.403-2.414-3.856-6.036-5.785-10.865-5.785z m74.181 23.577c6.676 3.727 10.014 9.69 10.014 17.889 0 6.61-2.447 12.217-7.34 16.82-4.894 4.601-10.84 6.902-17.84 6.902-5.218 0-9.917-1.053-14.098-3.16-4.829-2.463-8.086-5.963-9.77-10.5a6.093 6.093 0 0 1-0.39-2.187c0-1.815 0.73-3.322 2.188-4.521 1.361-1.102 2.917-1.653 4.667-1.653 2.041 0 3.678 0.81 4.91 2.43 2.073 2.788 3.272 4.31 3.597 4.57 2.009 1.62 4.974 2.43 8.895 2.43 3.08 0 5.777-0.923 8.094-2.77 2.317-1.847 3.476-4.067 3.476-6.66 0-8.07-5.428-12.639-16.285-13.708-4.764-0.454-7.146-2.447-7.146-5.98 0-2.69 1.847-4.65 5.542-5.881 3.5-0.778 6.984-1.572 10.451-2.382 2.204-0.68 3.857-1.572 4.959-2.674 1.101-1.102 1.669-2.414 1.701-3.937 0.13-4.83-3.646-7.243-11.326-7.243-2.528 0-5.299 0.964-8.313 2.892-3.014 1.928-5.072 2.892-6.173 2.892-1.848 0-3.42-0.664-4.716-1.993-1.296-1.329-1.944-2.835-1.944-4.52 0-2.755 2.722-5.494 8.166-8.216 4.862-2.43 8.815-3.646 11.862-3.646 7.356 0 13.27 1.588 17.743 4.764 4.893 3.5 7.34 8.49 7.34 14.972 0 3.565-0.689 6.603-2.066 9.115-1.377 2.512-3.443 4.496-6.198 5.955z" fill="#834038" p-id="1327"></path><path d="M284.889 194.667c-39.52 0-71.556 32.036-71.556 71.555v1.262c0 39.52 32.037 71.556 71.556 71.556h446.129c39.519 0 71.555-32.037 71.555-71.556v-1.262c0-39.519-32.036-71.555-71.555-71.555h-446.13z m0-18.667h446.129c49.828 0 90.222 40.394 90.222 90.222v1.262c0 49.828-40.394 90.222-90.222 90.222h-446.13c-49.827 0-90.221-40.394-90.221-90.222v-1.262c0-49.828 40.394-90.222 90.222-90.222z" fill="#834038" p-id="1328"></path><path d="M232 431.111h113.305c20.619 0 37.334 16.715 37.334 37.333v125.837c0 20.619-16.715 37.334-37.334 37.334H232c-20.619 0-37.333-16.715-37.333-37.334V468.444c0-20.618 16.714-37.333 37.333-37.333z" fill="#E6DCF3" p-id="1329"></path><path d="M316.608 543.913c-0.584 0-1.447-0.085-2.589-0.255-1.142-0.17-2.03-0.255-2.661-0.255-1.313 0-3.245 0.036-5.797 0.11-2.552 0.072-4.509 0.109-5.87 0.109 0.049 1.652 0.049 3.815 0 6.49a630.018 630.018 0 0 0-0.073 6.416c0 2.479-0.9 4.533-2.698 6.161-1.798 1.629-4.035 2.443-6.708 2.443-2.674 0-4.91-0.814-6.709-2.443-1.798-1.628-2.697-3.682-2.697-6.161 0 0.632-0.05-3.549-0.146-12.542-3.646 0.195-6.83 0.292-9.552 0.292-3.452 0-6.514-0.632-9.188-1.896-3.354-1.604-5.031-3.889-5.031-6.854 0-3.792 1.555-6.271 4.667-7.438 1.701-0.632 4.885-0.948 9.552-0.948 2.77 0 5.954-0.097 9.552-0.291 0-0.486-0.025-1.459-0.073-2.917-0.049-1.458-0.073-2.65-0.073-3.573 0-9.722 3.281-14.583 9.844-14.583 2.576 0 4.812 0.79 6.708 2.37s2.844 3.585 2.844 6.015c0 0.778-0.085 1.981-0.255 3.61-0.17 1.628-0.256 2.855-0.256 3.682l0.073 5.104c1.118 0.049 1.969 0.073 2.552 0.073 0.973 0 2.443-0.049 4.412-0.146 1.969-0.097 3.463-0.146 4.484-0.146 9.917 0 14.875 2.941 14.875 8.823 0 2.334-0.826 4.35-2.479 6.052-1.799 1.799-4.035 2.698-6.708 2.698z" fill="#834038" p-id="1330"></path><path d="M232 667.556h113.305c20.619 0 37.334 16.714 37.334 37.333v125.837c0 20.618-16.715 37.333-37.334 37.333H232c-20.619 0-37.333-16.715-37.333-37.333V704.889c0-20.619 16.714-37.333 37.333-37.333z" fill="#E6DCF3" p-id="1331"></path><path d="M301.676 792.749c-0.413-0.413-0.963-1.083-1.65-2.01-0.687-0.929-1.255-1.616-1.701-2.063a220.46 220.46 0 0 0-4.177-4.022 221.288 221.288 0 0 1-4.228-4.073c-1.134 1.203-2.664 2.732-4.589 4.589a630.03 630.03 0 0 0-4.588 4.485c-1.753 1.753-3.842 2.57-6.265 2.45-2.423-0.12-4.58-1.126-6.47-3.017-1.891-1.89-2.897-4.047-3.017-6.47-0.12-2.424 0.696-4.512 2.45-6.265-0.448 0.447 2.474-2.544 8.764-8.972-2.715-2.44-5.035-4.623-6.96-6.548-2.44-2.44-4.16-5.053-5.156-7.837-1.238-3.506-0.808-6.307 1.289-8.404 2.68-2.681 5.534-3.334 8.559-1.96 1.65 0.757 4.124 2.785 7.424 6.085 1.96 1.96 4.28 4.142 6.96 6.548a109.47 109.47 0 0 0 2.012-2.114 111.527 111.527 0 0 1 2.475-2.578c6.874-6.875 12.632-7.992 17.272-3.351 1.822 1.821 2.845 3.961 3.068 6.419 0.223 2.457-0.524 4.546-2.243 6.264-0.55 0.55-1.46 1.34-2.733 2.372-1.271 1.031-2.2 1.839-2.784 2.423l-3.557 3.661a63.6 63.6 0 0 0 1.753 1.856c0.687 0.688 1.761 1.693 3.222 3.016 1.461 1.324 2.552 2.346 3.274 3.068 7.012 7.012 8.439 12.598 4.28 16.757-1.65 1.65-3.661 2.492-6.033 2.527-2.544 0-4.76-0.946-6.651-2.836z" fill="#834038" p-id="1332"></path><path d="M449.778 431.111h113.305c20.619 0 37.333 16.715 37.333 37.333v125.837c0 20.619-16.714 37.334-37.333 37.334H449.778c-20.619 0-37.334-16.715-37.334-37.334V468.444c0-20.618 16.715-37.333 37.334-37.333z" fill="#E6DCF3" p-id="1333"></path><path d="M522.427 541.944c-6.708 0.487-18.642 0.73-35.802 0.73-3.014 0-5.663-0.68-7.948-2.042-2.674-1.653-4.01-3.889-4.01-6.708 0-2.82 1.336-5.056 4.01-6.709 2.285-1.41 4.934-2.114 7.948-2.114 3.84 0 9.6-0.11 17.281-0.328 7.68-0.22 13.441-0.329 17.282-0.329 3.013 0 5.663 0.608 7.947 1.823 2.917 1.556 4.375 3.865 4.375 6.927 0 5.3-3.694 8.216-11.083 8.75z" fill="#834038" p-id="1334"></path><path d="M673.778 431.111h107.126c24.055 0 43.556 19.5 43.556 43.556V819.89c0 24.055-19.5 43.556-43.556 43.556H673.778c-24.055 0-43.556-19.5-43.556-43.556V474.667c0-24.055 19.5-43.556 43.556-43.556z" fill="#E6DCF3" p-id="1335"></path><path d="M745.82 634.84h-34.126c-1.118 0-2.77 0.049-4.958 0.146-2.187 0.097-3.84 0.146-4.958 0.146-2.722 0-4.959-0.826-6.709-2.48-1.75-1.652-2.625-3.67-2.625-6.051 0-5.882 4.813-8.823 14.438-8.823 0.583 0 1.458 0.024 2.625 0.073h2.26l34.052 0.073c2.723 0 4.97 0.802 6.745 2.406 1.775 1.604 2.662 3.621 2.662 6.052 0 2.43-0.887 4.448-2.662 6.052-1.774 1.604-4.022 2.406-6.745 2.406z m-1.021 35.584c-3.209 0-8.021-0.061-14.438-0.183-6.417-0.121-11.229-0.182-14.437-0.182-1.459 0-3.634 0.085-6.526 0.255-2.893 0.17-5.068 0.255-6.526 0.255-2.771 0-5.068-0.777-6.891-2.333-1.823-1.555-2.734-3.597-2.734-6.125 0-5.25 2.99-8.07 8.968-8.458 5.104-0.34 9.674-0.51 13.709-0.51 3.208 0 8.02 0.06 14.437 0.182 6.417 0.121 11.23 0.182 14.438 0.182 2.722 0 4.97 0.802 6.744 2.406 1.775 1.604 2.662 3.622 2.662 6.052 0 2.43-0.887 4.448-2.662 6.052-1.774 1.605-4.022 2.407-6.744 2.407z" fill="#834038" p-id="1336"></path><path d="M449.778 667.556h113.305c20.619 0 37.333 16.714 37.333 37.333v125.837c0 20.618-16.714 37.333-37.333 37.333H449.778c-20.619 0-37.334-16.715-37.334-37.333V704.889c0-20.619 16.715-37.333 37.334-37.333z" fill="#E6DCF3" p-id="1337"></path><path d="M527.035 768.656c-4.4 5.087-12.667 13.698-24.8 25.831-2.131 2.132-4.486 3.524-7.064 4.177-3.06 0.722-5.586 0.086-7.58-1.908-1.993-1.994-2.629-4.52-1.907-7.58 0.619-2.612 1.994-4.983 4.125-7.115 2.715-2.715 6.711-6.866 11.987-12.451 5.277-5.586 9.273-9.736 11.988-12.452 2.131-2.131 4.434-3.575 6.91-4.331 3.161-0.962 5.825-0.36 7.99 1.805 3.748 3.746 3.198 8.421-1.649 14.024z" fill="#834038" p-id="1338"></path><path d="M232 443.556c-13.746 0-24.889 11.143-24.889 24.888v125.837c0 13.746 11.143 24.89 24.889 24.89h113.305c13.746 0 24.89-11.144 24.89-24.89V468.444c0-13.745-11.144-24.888-24.89-24.888H232z m0-12.445h113.305c20.619 0 37.334 16.715 37.334 37.333v125.837c0 20.619-16.715 37.334-37.334 37.334H232c-20.619 0-37.333-16.715-37.333-37.334V468.444c0-20.618 16.714-37.333 37.333-37.333zM232 680c-13.746 0-24.889 11.143-24.889 24.889v125.837c0 13.745 11.143 24.889 24.889 24.889h113.305c13.746 0 24.89-11.144 24.89-24.89V704.89c0-13.746-11.144-24.889-24.89-24.889H232z m0-12.444h113.305c20.619 0 37.334 16.714 37.334 37.333v125.837c0 20.618-16.715 37.333-37.334 37.333H232c-20.619 0-37.333-16.715-37.333-37.333V704.889c0-20.619 16.714-37.333 37.333-37.333zM449.778 443.556c-13.746 0-24.89 11.143-24.89 24.888v125.837c0 13.746 11.144 24.89 24.89 24.89h113.305c13.746 0 24.889-11.144 24.889-24.89V468.444c0-13.745-11.143-24.888-24.889-24.888H449.778z m0-12.445h113.305c20.619 0 37.333 16.715 37.333 37.333v125.837c0 20.619-16.714 37.334-37.333 37.334H449.778c-20.619 0-37.334-16.715-37.334-37.334V468.444c0-20.618 16.715-37.333 37.334-37.333zM673.778 443.556c-17.182 0-31.111 13.928-31.111 31.11v345.225c0 17.182 13.929 31.111 31.11 31.111h107.127c17.183 0 31.112-13.929 31.112-31.11V474.666c0-17.183-13.93-31.111-31.112-31.111H673.778z m0-12.445h107.126c24.055 0 43.556 19.5 43.556 43.556V819.89c0 24.055-19.5 43.556-43.556 43.556H673.778c-24.055 0-43.556-19.5-43.556-43.556V474.667c0-24.055 19.5-43.556 43.556-43.556zM449.778 680c-13.746 0-24.89 11.143-24.89 24.889v125.837c0 13.745 11.144 24.889 24.89 24.889h113.305c13.746 0 24.889-11.144 24.889-24.89V704.89c0-13.746-11.143-24.889-24.889-24.889H449.778z m0-12.444h113.305c20.619 0 37.333 16.714 37.333 37.333v125.837c0 20.618-16.714 37.333-37.333 37.333H449.778c-20.619 0-37.334-16.715-37.334-37.333V704.889c0-20.619 16.715-37.333 37.334-37.333z" fill="#834038" p-id="1339"></path><path d="M225.778 88.889c-75.602 0-136.89 61.287-136.89 136.889v572.444c0 75.602 61.288 136.89 136.89 136.89h572.444c75.602 0 136.89-61.288 136.89-136.89V225.778c0-75.602-61.288-136.89-136.89-136.89H225.778z m0-24.889h572.444C887.57 64 960 136.43 960 225.778v572.444C960 887.57 887.57 960 798.222 960H225.778C136.43 960 64 887.57 64 798.222V225.778C64 136.43 136.43 64 225.778 64z" fill="#834038" p-id="1340"></path></svg>