<?xml version="1.0" standalone="no"?><!DOCTYPE svg PUBLIC "-//W3C//DTD SVG 1.1//EN" "http://www.w3.org/Graphics/SVG/1.1/DTD/svg11.dtd"><svg t="1596297182306" class="icon" viewBox="0 0 1024 1024" version="1.1" xmlns="http://www.w3.org/2000/svg" p-id="1039" xmlns:xlink="http://www.w3.org/1999/xlink" width="200" height="200"><defs><style type="text/css"></style></defs><path d="M512.5 512.5m-448.5 0a448.5 448.5 0 1 0 897 0 448.5 448.5 0 1 0-897 0Z" fill="#F38F91" p-id="1040"></path><path d="M512.5 935.91c233.842 0 423.41-189.568 423.41-423.41S746.341 89.09 512.5 89.09 89.09 278.659 89.09 512.5 278.659 935.91 512.5 935.91z m0 25.09C264.8 961 64 760.2 64 512.5S264.8 64 512.5 64 961 264.8 961 512.5 760.2 961 512.5 961z m-15.426-63.03a15.773 15.773 0 0 1-0.256-2.834c0-8.66 7.021-15.681 15.682-15.681 8.66 0 15.682 7.02 15.682 15.681 0 0.968-0.088 1.915-0.256 2.834 59.042-2.322 114.674-17.913 163.997-43.874a15.768 15.768 0 0 1-1.686-2.382c-4.33-7.5-1.76-17.092 5.74-21.422 7.5-4.33 17.092-1.76 21.422 5.74 0.492 0.851 0.894 1.73 1.21 2.624A387.81 387.81 0 0 0 838.657 718.61a15.77 15.77 0 0 1-2.624-1.211c-7.5-4.33-10.07-13.921-5.74-21.422 4.33-7.5 13.921-10.07 21.422-5.74 0.86 0.497 1.655 1.063 2.382 1.686 25.961-49.323 41.552-104.955 43.874-163.997-0.92 0.168-1.866 0.256-2.834 0.256-8.66 0-15.681-7.021-15.681-15.682 0-8.66 7.02-15.682 15.681-15.682 0.968 0 1.915 0.088 2.834 0.256-2.322-59.042-17.913-114.674-43.874-163.997a15.768 15.768 0 0 1-2.382 1.686c-7.5 4.33-17.092 1.76-21.422-5.74-4.33-7.5-1.76-17.092 5.74-21.422a15.77 15.77 0 0 1 2.624-1.21A387.81 387.81 0 0 0 718.61 186.343a15.77 15.77 0 0 1-1.211 2.624c-4.33 7.5-13.921 10.07-21.422 5.74-7.5-4.33-10.07-13.921-5.74-21.422a15.768 15.768 0 0 1 1.686-2.382C642.6 144.943 586.968 129.352 527.926 127.03c0.168 0.92 0.256 1.866 0.256 2.834 0 8.66-7.021 15.681-15.682 15.681-8.66 0-15.682-7.02-15.682-15.681 0-0.968 0.088-1.915 0.256-2.834-59.042 2.322-114.674 17.913-163.997 43.874 0.623 0.727 1.19 1.522 1.686 2.382 4.33 7.5 1.76 17.092-5.74 21.422-7.5 4.33-17.092 1.76-21.422-5.74a15.77 15.77 0 0 1-1.21-2.624A387.81 387.81 0 0 0 186.343 306.39c0.895 0.317 1.773 0.72 2.624 1.211 7.5 4.33 10.07 13.921 5.74 21.422-4.33 7.5-13.921 10.07-21.422 5.74a15.768 15.768 0 0 1-2.382-1.686C144.943 382.4 129.352 438.032 127.03 497.074c0.92-0.168 1.866-0.256 2.834-0.256 8.66 0 15.681 7.021 15.681 15.682 0 8.66-7.02 15.682-15.681 15.682-0.968 0-1.915-0.088-2.834-0.256 2.322 59.042 17.913 114.674 43.874 163.997a15.768 15.768 0 0 1 2.382-1.686c7.5-4.33 17.092-1.76 21.422 5.74 4.33 7.5 1.76 17.092-5.74 21.422a15.77 15.77 0 0 1-2.624 1.21A387.81 387.81 0 0 0 306.39 838.657a15.77 15.77 0 0 1 1.211-2.624c4.33-7.5 13.921-10.07 21.422-5.74 7.5 4.33 10.07 13.921 5.74 21.422a15.768 15.768 0 0 1-1.686 2.382c49.323 25.961 104.955 41.552 163.997 43.874z m15.426 12.848c-219.985 0-398.318-178.333-398.318-398.318 0-219.985 178.333-398.318 398.318-398.318 219.985 0 398.318 178.333 398.318 398.318 0 219.985-178.333 398.318-398.318 398.318z" fill="#7F4333" p-id="1041"></path><path d="M495.433 534.282L240.51 678.86a5.32 5.32 0 0 1-7.206-1.925 5.143 5.143 0 0 1 1.893-7.086l253.51-143.778a28.038 28.038 0 0 1-3.396-13.42c0-9.776 4.983-18.39 12.551-23.45V324.69c0-8.666 7.025-15.69 15.69-15.69s15.69 7.024 15.69 15.69v164.512a28.285 28.285 0 0 1 10.944 14.05h224.415a9.4 9.4 0 1 1 0 18.799H540.186c-3.877 10.952-14.338 18.798-26.634 18.798a28.154 28.154 0 0 1-18.119-6.567z m18.119-5.965c8.665 0 15.69-7.014 15.69-15.666 0-8.652-7.025-15.665-15.69-15.665s-15.69 7.013-15.69 15.665 7.025 15.666 15.69 15.666z" fill="#FFFFFF" p-id="1042"></path></svg>